<svg xmlns="http://www.w3.org/2000/svg" version="1.1" xmlns:xlink="http://www.w3.org/1999/xlink" width="512" height="512" x="0" y="0" viewBox="0 0 32 32" style="enable-background:new 0 0 512 512" xml:space="preserve" class=""><g><g data-name="Layer 13"><path d="M29 24a1 1 0 0 0 1-1v-2a1 1 0 0 0-.55-.89l-6-3a1 1 0 0 0-.9 0l-6 3A1 1 0 0 0 16 21v2a1 1 0 0 0 1 1h1v4h-1a1 1 0 0 0 0 2h12a1 1 0 0 0 0-2h-1v-4zm-7 4h-2v-4h2zm4 0h-2v-4h2z" fill="#000000" opacity="1" data-original="#000000" class=""/><path d="M16 25.83A3 3 0 0 1 14 23v-2a3 3 0 0 1 1.66-2.68l6-3A16 16 0 0 0 22 12a10 10 0 0 0-20 0c0 9.34 9 17.41 9.34 17.75a1 1 0 0 0 1.32 0c.09-.08.64-.58 1.42-1.39A3 3 0 0 1 16 26.17zM12 17a5 5 0 1 1 5-5 5 5 0 0 1-5 5z" fill="#000000" opacity="1" data-original="#000000" class=""/></g></g></svg>