<svg xmlns="http://www.w3.org/2000/svg" version="1.1" xmlns:xlink="http://www.w3.org/1999/xlink" width="512" height="512" x="0" y="0" viewBox="0 0 512 512" style="enable-background:new 0 0 512 512" xml:space="preserve"><g><path d="M425.7 11H86.3A75.3 75.3 0 0 0 11 86.3v339.4A75.3 75.3 0 0 0 86.3 501h339.4a75.3 75.3 0 0 0 75.3-75.3V86.3A75.3 75.3 0 0 0 425.7 11zm6.2 285.12a24.63 24.63 0 0 1-24.62 24.63h-86.53v86.53a24.63 24.63 0 0 1-24.63 24.62h-80.24a24.63 24.63 0 0 1-24.63-24.62v-86.53h-86.53a24.63 24.63 0 0 1-24.62-24.63v-80.24a24.63 24.63 0 0 1 24.62-24.63h86.53v-86.53a24.63 24.63 0 0 1 24.63-24.62h80.24a24.63 24.63 0 0 1 24.63 24.62v86.53h86.53a24.63 24.63 0 0 1 24.62 24.63z" data-name="22 Clinic" fill="#000000" opacity="1" data-original="#000000"/></g></svg>