<svg xmlns="http://www.w3.org/2000/svg" version="1.1" xmlns:xlink="http://www.w3.org/1999/xlink" width="512" height="512" x="0" y="0" viewBox="0 0 512 512" style="enable-background:new 0 0 512 512" xml:space="preserve"><g><path d="M471.25 82.918a8.746 8.746 0 0 0-8.75 8.75v53.75h-445V4.168c0-4.836-3.914-8.75-8.75-8.75S0-.668 0 4.168v325c0 4.832 3.914 8.75 8.75 8.75s8.75-3.918 8.75-8.75v-53.75h445v53.75c0 4.832 3.914 8.75 8.75 8.75S480 334 480 329.168v-237.5a8.746 8.746 0 0 0-8.75-8.75zm-453.75 175v-20h445v20zm0 0" fill="#000000" opacity="1" data-original="#000000"/><path d="M40.89 129.328h116.243c4.828 0 8.75-3.918 8.75-8.75-.031-31.137-25.274-56.379-56.41-56.41H40.89a8.746 8.746 0 0 0-8.75 8.75v47.66a8.748 8.748 0 0 0 8.75 8.75zm0 0" fill="#000000" opacity="1" data-original="#000000"/></g></svg>