<svg xmlns="http://www.w3.org/2000/svg" version="1.1" xmlns:xlink="http://www.w3.org/1999/xlink" width="512" height="512" x="0" y="0" viewBox="0 0 512 512" style="enable-background:new 0 0 512 512" xml:space="preserve"><g><path d="M256 0C114.841 0 0 114.841 0 256s114.841 256 256 256 256-114.841 256-256S397.159 0 256 0zm0 480C132.486 480 32 379.514 32 256S132.486 32 256 32s224 100.486 224 224-100.486 224-224 224zm16-388.414V256a16 16 0 0 1-7.992 13.852l-93.175 53.864a15.924 15.924 0 0 1-7.993 2.151c-5.527 0-10.902-2.866-13.867-7.995-4.423-7.65-1.806-17.438 5.844-21.859L240 246.769V91.586c0-8.837 7.164-16 16-16s16 7.163 16 16z" fill="#000000" opacity="1" data-original="#000000"/></g></svg>