<svg xmlns="http://www.w3.org/2000/svg" version="1.1" xmlns:xlink="http://www.w3.org/1999/xlink" width="512" height="512" x="0" y="0" viewBox="0 0 92.565 92.565" style="enable-background:new 0 0 512 512" xml:space="preserve"><g><path d="M43.824 3.779v26.069c0 1.389-4.302 4.778-7.178 6.89v7.688a3.767 3.767 0 0 1 2.55 3.557v40.804a3.778 3.778 0 0 1-3.777 3.778h-2.645a3.78 3.78 0 0 1-3.779-3.778V47.982c0-1.654 1.071-3.045 2.551-3.557v-7.606c-3.055-2.104-7.745-5.565-7.745-6.972V3.779C23.801 1.692 24.812 0 27.07 0h1.348v27.196c0 .647.823 1.17 1.839 1.17 1.015 0 1.838-.523 1.838-1.17V0h3.406v27.196c0 .647.823 1.17 1.839 1.17s1.839-.523 1.839-1.17V0h.558c2.257 0 4.087 1.692 4.087 3.779zM64.896.666S54.843 7.239 54.843 24.639v3.442c0 17.171 3.771 24.735 6.305 29.113v32.578a2.792 2.792 0 0 0 2.793 2.792h1.954a2.794 2.794 0 0 0 2.794-2.792V55.555c.047-.244.075-.498.075-.756V4.532c-.001-2.136-.838-5.091-3.868-3.866z" fill="#000000" opacity="1" data-original="#000000"/></g></svg>