<svg xmlns="http://www.w3.org/2000/svg" version="1.1" xmlns:xlink="http://www.w3.org/1999/xlink" width="512" height="512" x="0" y="0" viewBox="0 0 32 32" style="enable-background:new 0 0 512 512" xml:space="preserve"><g><path d="M18.12 21.46a4.972 4.972 0 0 1-2.12.47 5.05 5.05 0 0 1-2.13-.47L7 18.28v4.35a3.009 3.009 0 0 0 1.81 2.76A18.9 18.9 0 0 0 16 27a18.9 18.9 0 0 0 7.19-1.61A3.009 3.009 0 0 0 25 22.63v-4.35zM28 16.89V21a1 1 0 0 1-2 0v-3.19z" fill="#000000" opacity="1" data-original="#000000"/><path d="M16 19.931a3.044 3.044 0 0 1-1.285-.285L3.178 14.307a2.03 2.03 0 0 1 0-3.685l11.537-5.339a3.047 3.047 0 0 1 2.57 0l11.537 5.339a2.03 2.03 0 0 1 0 3.686l-11.537 5.338a3.044 3.044 0 0 1-1.285.285z" fill="#000000" opacity="1" data-original="#000000"/></g></svg>