<svg xmlns="http://www.w3.org/2000/svg" version="1.1" xmlns:xlink="http://www.w3.org/1999/xlink" width="512" height="512" x="0" y="0" viewBox="0 0 512 512" style="enable-background:new 0 0 512 512" xml:space="preserve"><g><path d="M480.7 187c-36.59-5.74-62.32-39.6-58.23-75.49a64.82 64.82 0 0 1 3.29-14.26c4.24-12.18-.11-26.25-10.58-35.07a269.33 269.33 0 0 0-74.28-45.5 28.8 28.8 0 0 0-34.16 9.17c-21.42 28.63-62.69 33.65-90.56 11.3a62.84 62.84 0 0 1-10.92-11.3 28.8 28.8 0 0 0-34.16-9.17A268.78 268.78 0 0 0 102 57.79c-11 8.92-15.56 23.54-11.1 36.13 12.47 33.07-4.37 71.85-38.58 86a68.91 68.91 0 0 1-19.09 4.91c-13.78 1.71-25.21 11.9-28 25.05a210.58 210.58 0 0 0-1.65 84.62c2.42 13.58 14 24.24 28.2 26 36.6 3.88 63.82 36.24 61.48 72.25a63.32 63.32 0 0 1-5 21c-5.41 12.51-1.21 27.68 10 36.9a270.75 270.75 0 0 0 73.58 44.8 32.29 32.29 0 0 0 10.39 2.12 28.59 28.59 0 0 0 24.41-12.82 63.52 63.52 0 0 1 104.51-1.79 28.69 28.69 0 0 0 35.32 9.62A276 276 0 0 0 414 450c10.66-9 15-23.41 10.43-35.75-12.85-32.93 3.57-71.86 37.57-86.33a69.27 69.27 0 0 1 18-5c13.62-2.09 24.67-12.42 27.19-25.49a214 214 0 0 0 4.81-41.55 211.57 211.57 0 0 0-4.61-43.88c-2.56-12.79-13.37-22.88-26.69-25zm-139.37 68.88c0 46.84-38.52 85.29-85.33 85.33s-85.29-38.49-85.33-85.33 38.52-85.3 85.33-85.34 85.29 38.46 85.33 85.34z" data-name="Layer 2" fill="#000000" opacity="1" data-original="#000000"></path></g></svg>